<?xml version="1.0" standalone="no"?>
<!DOCTYPE svg PUBLIC "-//W3C//DTD SVG 20010904//EN"
 "http://www.w3.org/TR/2001/REC-SVG-20010904/DTD/svg10.dtd">
<svg version="1.0" xmlns="http://www.w3.org/2000/svg"
 width="621.000000pt" height="627.000000pt" viewBox="0 0 621.000000 627.000000"
 preserveAspectRatio="xMidYMid meet">

<g transform="translate(0.000000,627.000000) scale(0.100000,-0.100000)"
fill="#000000" stroke="none">
<path d="M3250 6001 l-45 -6 55 -8 c81 -12 245 -54 325 -84 316 -118 607 -365
775 -659 97 -170 174 -400 200 -598 34 -257 -16 -565 -130 -812 -104 -224
-250 -400 -496 -592 -75 -59 205 99 297 167 539 402 755 1042 549 1626 -67
188 -173 357 -320 509 -252 261 -572 414 -952 455 -103 12 -184 12 -258 2z"/>
<path d="M4435 5882 c168 -90 256 -153 379 -271 216 -209 365 -474 431 -771
26 -113 31 -389 11 -517 -55 -344 -207 -638 -454 -875 -157 -150 -303 -243
-495 -314 l-92 -35 60 7 c194 20 443 112 630 234 325 213 547 533 630 910 22
99 31 381 16 480 -45 289 -171 544 -373 756 -187 195 -422 337 -675 408 -157
44 -168 42 -68 -12z"/>
<path d="M2435 5655 c-191 -31 -400 -108 -570 -209 -104 -63 -130 -86 -61 -56
204 87 522 130 756 101 262 -32 522 -135 717 -283 315 -239 508 -534 588 -898
9 -44 19 -145 22 -245 4 -147 2 -187 -16 -290 -24 -134 -74 -292 -121 -385
-17 -34 -29 -64 -27 -66 2 -3 27 28 54 68 275 399 352 893 208 1325 -68 205
-170 373 -321 532 -199 210 -416 333 -699 396 -101 23 -413 29 -530 10z"/>
<path d="M1927 5325 c-459 -75 -851 -349 -1086 -760 -60 -105 -65 -128 -14
-65 63 78 195 204 274 262 432 319 980 386 1490 181 295 -118 558 -346 723
-628 94 -161 167 -395 182 -584 12 -144 26 -53 27 169 0 214 -13 302 -73 480
-155 464 -548 823 -1020 931 -115 27 -381 34 -503 14z"/>
<path d="M1660 4729 c-324 -22 -658 -187 -898 -444 -239 -256 -373 -575 -396
-947 -5 -87 6 -120 18 -55 12 63 58 192 101 284 111 236 310 467 535 620 75
51 230 130 320 163 361 133 730 131 1072 -6 309 -124 549 -333 714 -621 50
-88 54 -86 20 14 -126 371 -401 679 -761 853 -231 111 -465 156 -725 139z"/>
<path d="M1694 4080 c-538 -61 -951 -369 -1145 -853 -121 -300 -131 -684 -27
-1011 31 -96 164 -383 174 -373 3 2 -4 33 -16 67 -105 313 -105 675 1 977 85
240 211 428 413 611 211 192 442 312 723 374 82 18 131 22 293 22 167 1 210
-3 298 -22 133 -30 228 -61 337 -111 105 -49 94 -32 -35 54 -193 129 -420 218
-650 254 -95 15 -284 21 -366 11z"/>
<path d="M2155 3560 c-659 -71 -1182 -545 -1291 -1170 -24 -142 -15 -399 19
-536 104 -410 370 -752 750 -963 21 -12 40 -21 42 -21 2 0 -37 42 -88 93 -182
183 -323 424 -393 672 -63 224 -74 500 -28 718 37 179 132 397 240 552 68 98
243 269 350 342 217 148 486 248 725 268 41 3 90 9 109 12 33 6 32 7 -30 19
-87 17 -306 25 -405 14z"/>
<path d="M2654 3195 c-243 -36 -444 -121 -645 -272 -302 -227 -481 -550 -509
-920 -35 -459 152 -862 533 -1149 138 -104 371 -215 522 -248 17 -4 -12 16
-65 46 -362 202 -612 538 -701 943 -29 134 -36 337 -15 466 32 190 123 423
229 579 55 81 168 209 241 272 142 123 282 202 471 264 112 37 96 42 -61 19z"/>
</g>
</svg>
